<?xml version="1.0" encoding="UTF-8" standalone="no"?>
<svg
   xmlns:dc="http://purl.org/dc/elements/1.1/"
   xmlns:cc="http://creativecommons.org/ns#"
   xmlns:rdf="http://www.w3.org/1999/02/22-rdf-syntax-ns#"
   xmlns:svg="http://www.w3.org/2000/svg"
   xmlns="http://www.w3.org/2000/svg"
   xmlns:sodipodi="http://sodipodi.sourceforge.net/DTD/sodipodi-0.dtd"
   xmlns:inkscape="http://www.inkscape.org/namespaces/inkscape"
   version="1.1"
   id="Layer_1"
   x="0px"
   y="0px"
   viewBox="0 0 502.4 502.4"
   style="enable-background:new 0 0 502.4 502.4;"
   xml:space="preserve"
   sodipodi:docname="down-arrow-svgrepo-com.svg"
   inkscape:version="1.0.1 (3bc2e813f5, 2020-09-07)"><metadata
   id="metadata45"><rdf:RDF><cc:Work
       rdf:about=""><dc:format>image/svg+xml</dc:format><dc:type
         rdf:resource="http://purl.org/dc/dcmitype/StillImage" /></cc:Work></rdf:RDF></metadata><defs
   id="defs43" /><sodipodi:namedview
   pagecolor="#ffffff"
   bordercolor="#666666"
   borderopacity="1"
   objecttolerance="10"
   gridtolerance="10"
   guidetolerance="10"
   inkscape:pageopacity="0"
   inkscape:pageshadow="2"
   inkscape:window-width="1920"
   inkscape:window-height="1011"
   id="namedview41"
   showgrid="false"
   inkscape:zoom="1.1878944"
   inkscape:cx="188.32591"
   inkscape:cy="265.9939"
   inkscape:window-x="-8"
   inkscape:window-y="-8"
   inkscape:window-maximized="1"
   inkscape:current-layer="Layer_1" />
<path
   style="fill:#ffffff;fill-opacity:1"
   d="M10.8,164.4L234.4,388c4.4,4.4,10.8,6.8,16.8,6.8s12-2.4,16.8-6.8l223.6-223.6c9.2-9.2,9.2-24,0-33.2  l-16.4-16.4c-9.2-9.2-24-9.2-33.2,0L251.6,305.2L60.8,114.8c-9.2-9.2-24-9.2-33.2,0l-16.4,16.4C1.6,140,1.6,155.2,10.8,164.4z"
   id="path2" />
<path
   style="fill:#ffffff"
   d="M268.4,315.6l-16.8,16.8l-16.8-16.8L52,132.8c-4-4-10.4-4-14.4,0l-7.6,7.6c-4,4-4,10.4,0,14.4  l214.4,214.4c2,2,4.8,3.2,7.6,2.8c2.8,0,5.2-0.8,7.6-2.8L442.8,186l20-20l11.2-11.2c4-4,4-10.4,0-14.4l-7.6-7.6c-4-4-10.4-4-14.4,0  L268.4,315.6z"
   id="path4" />
<path
   d="m 251.2,398.8 v 0 c -7.6,0 -14.4,-2.8 -19.6,-8 L 8,167.2 C 2.8,162 0,155.2 0,147.6 0,140.4 2.8,133.2 8,128 l 16.4,-16.4 c 5.2,-5.2 12,-8 19.6,-8 v 0 c 7.2,0 14.4,2.8 19.6,8 L 251.2,299.2 438.8,111.6 c 5.2,-5.2 12,-8 19.6,-8 v 0 c 7.2,0 14.4,2.8 19.6,8 l 16.4,16.4 c 5.2,5.2 8,12 8,19.6 0,7.2 -2.8,14.4 -8,19.6 L 270.8,390.8 c -5.2,5.2 -12,8 -19.6,8 z m 0,-8 c 5.2,0 10.4,-2 14,-5.6 L 488.8,161.6 c 3.6,-3.6 5.6,-8.4 5.6,-14 0,-5.6 -2,-10 -5.6,-14 l -16.4,-16.4 c -3.6,-3.6 -8.4,-5.6 -14,-5.6 v 0 c -5.2,0 -10,2 -14,5.6 L 254,307.6 c -1.6,1.6 -4,1.6 -5.6,0 L 57.6,117.2 c -3.6,-3.6 -8.4,-5.6 -14,-5.6 v 0 c -5.2,0 -10,2 -14,5.6 l -16.4,16.4 c -3.6,3.6 -5.6,8.4 -5.6,14 0,5.2 2,10 5.6,14 v 0 l 223.6,223.6 c 4.4,3.6 9.2,5.6 14.4,5.6 z"
   id="path6"
   style="fill:#ffffff" />
<path
   d="M251.6,376.4c-0.4,0-0.4,0-0.8,0c-3.6,0-7.2-1.6-10-4L26.4,158c-5.6-5.6-5.6-14.4,0-20l7.6-7.6c5.2-5.2,14.8-5.2,20,0  l197.2,196.8l165.6-165.6c1.6-1.6,4-1.6,5.6,0s1.6,4,0,5.6L254,335.6c-1.6,1.6-4,1.6-5.6,0l-200-200c-2.4-2.4-6.4-2.4-8.8,0  l-7.6,7.6c-2.4,2.4-2.4,6.4,0,8.8l214.4,214.4c1.2,1.2,2.8,2,4.4,1.6c2,0,3.6-0.4,4.8-1.6L470,152c1.2-1.2,2-2.8,2-4.4  s-0.8-3.2-2-4.4l-7.6-7.6c-2.4-2.4-6.4-2.4-8.8,0l-7.6,7.6c-1.6,1.6-4,1.6-5.6,0s-1.6-4,0-5.6l7.6-7.6c5.6-5.6,14.4-5.6,20,0  l7.6,7.6c2.8,2.8,4,6.4,4,10c0,4-1.6,7.2-4,10L261.2,372C258.8,374.8,255.2,376.4,251.6,376.4z"
   id="path8"
   style="fill:#ffffff" />
<g
   id="g10">
</g>
<g
   id="g12">
</g>
<g
   id="g14">
</g>
<g
   id="g16">
</g>
<g
   id="g18">
</g>
<g
   id="g20">
</g>
<g
   id="g22">
</g>
<g
   id="g24">
</g>
<g
   id="g26">
</g>
<g
   id="g28">
</g>
<g
   id="g30">
</g>
<g
   id="g32">
</g>
<g
   id="g34">
</g>
<g
   id="g36">
</g>
<g
   id="g38">
</g>
</svg>
