<svg xmlns="http://www.w3.org/2000/svg" width="61" height="61" viewBox="0 0 16.14 16.14"><path style="fill:#ccc;stroke-width:.686001;stroke-linecap:round;stroke-linejoin:round;paint-order:stroke fill markers" d="M4.61 6.982h6.348v7.517H4.61z"/><path style="fill:#000;stroke:none;stroke-width:.537963;stroke-linecap:round;stroke-linejoin:bevel;paint-order:stroke fill markers" d="M3.79 20.742v40h53.42v-40H3.79zm26.575 7.69a8.839 8.839 0 0 1 .135 0 8.839 8.839 0 0 1 8.838 8.838 8.839 8.839 0 0 1-4.734 7.826v7.957h-8.208v-7.955a8.839 8.839 0 0 1-4.734-7.828 8.839 8.839 0 0 1 8.703-8.838z" transform="scale(.26458)"/><path style="fill:none;stroke:#000;stroke-width:1.81286;stroke-linecap:butt;stroke-linejoin:miter;stroke-miterlimit:4;stroke-dasharray:none;stroke-opacity:1" d="M3.537 5.525C3.614 3.295 4.589.961 8.039.985c3.45.025 4.51 2.211 4.564 4.54"/></svg>