<?xml version="1.0" encoding="UTF-8" standalone="no"?>
<svg
   xmlns:dc="http://purl.org/dc/elements/1.1/"
   xmlns:cc="http://creativecommons.org/ns#"
   xmlns:rdf="http://www.w3.org/1999/02/22-rdf-syntax-ns#"
   xmlns:svg="http://www.w3.org/2000/svg"
   xmlns="http://www.w3.org/2000/svg"
   xmlns:sodipodi="http://sodipodi.sourceforge.net/DTD/sodipodi-0.dtd"
   xmlns:inkscape="http://www.inkscape.org/namespaces/inkscape"
   width="153"
   height="125"
   viewBox="0 0 40.481248 33.072914"
   version="1.1"
   id="svg1062"
   inkscape:version="1.0.1 (3bc2e813f5, 2020-09-07)"
   sodipodi:docname="musketeer_garde.svg">
  <defs
     id="defs1056" />
  <sodipodi:namedview
     id="base"
     pagecolor="#ffffff"
     bordercolor="#666666"
     borderopacity="1.0"
     inkscape:pageopacity="0.0"
     inkscape:pageshadow="2"
     inkscape:zoom="8"
     inkscape:cx="130.87385"
     inkscape:cy="105.39598"
     inkscape:document-units="mm"
     inkscape:current-layer="layer1"
     inkscape:document-rotation="0"
     showgrid="false"
     units="px"
     inkscape:window-width="1920"
     inkscape:window-height="1011"
     inkscape:window-x="-8"
     inkscape:window-y="-8"
     inkscape:window-maximized="1"
     inkscape:snap-global="false" />
  <metadata
     id="metadata1059">
    <rdf:RDF>
      <cc:Work
         rdf:about="">
        <dc:format>image/svg+xml</dc:format>
        <dc:type
           rdf:resource="http://purl.org/dc/dcmitype/StillImage" />
        <dc:title />
      </cc:Work>
    </rdf:RDF>
  </metadata>
  <g
     inkscape:label="Calque 1"
     inkscape:groupmode="layer"
     id="layer1">
    <g
       id="g1847"
       transform="matrix(0.99903182,0,0,1.0029496,0.13375182,2.6009614)">
      <path
         style="fill:#ffffff;stroke:#000000;stroke-width:0.529167;stroke-linecap:butt;stroke-linejoin:miter;stroke-miterlimit:4;stroke-dasharray:none;stroke-opacity:1"
         d="M 10.614872,25.50238 V 4.65536 C 4.7140257,4.94028 0.04239518,10.24135 0.13225358,15.07887 0.22214158,19.91639 4.6205362,24.84326 10.614872,25.50238 Z"
         id="path849"
         sodipodi:nodetypes="cczc" />
      <rect
         style="fill:#000000;fill-opacity:1;stroke-width:10.2175;stroke-linecap:round;stroke-linejoin:bevel;paint-order:stroke fill markers"
         id="rect851"
         width="24.322334"
         height="1.5915294"
         x="-27.24437"
         y="10.70862"
         ry="0.79576468"
         transform="rotate(-90)" />
      <ellipse
         style="fill:#000000;fill-opacity:1;stroke-width:22.4667;stroke-linecap:round;stroke-linejoin:bevel;paint-order:stroke fill markers"
         id="path853"
         cx="-29.130293"
         cy="11.504401"
         transform="rotate(-90)"
         rx="1.2520461"
         ry="1.2353889" />
      <rect
         style="fill:#000000;fill-opacity:1;stroke-width:16.1427;stroke-linecap:round;stroke-linejoin:bevel;paint-order:stroke fill markers"
         id="rect872"
         width="30.337599"
         height="0.37294763"
         x="-30.382339"
         y="11.317921"
         ry="0"
         transform="rotate(-90)" />
      <path
         id="path874"
         style="fill:#ffffff;stroke:#000000;stroke-width:0.262817px;stroke-linecap:butt;stroke-linejoin:miter;stroke-opacity:0.995935"
         d="m 12.226769,16.96224 c 4.127626,-0.75321 8.117883,0.0251 12.167491,0.1416 2.813705,-0.16494 5.59006,-0.0649 8.484562,-0.80306 0.31966,-0.0532 0.577878,0.0771 0.804532,0.21239 -0.06927,-0.93057 -0.05141,-1.99083 0.03473,-3.04735 -0.199283,0.27262 -0.445513,0.50329 -0.792366,0.47284 -2.637271,-0.57968 -5.364952,-1.03107 -8.438158,-0.99219 -4.075469,0.23817 -8.105747,0.98 -12.260803,0.33073 z"
         sodipodi:nodetypes="ccccccccc" />
      <g
         id="g995"
         style="stroke:#000000;stroke-opacity:1"
         transform="matrix(0,-1,0.98669597,0,-187.53306,103.28256)">
        <path
           style="fill:none;stroke:#000000;stroke-width:0.264583px;stroke-linecap:butt;stroke-linejoin:miter;stroke-opacity:1"
           d="m 86.627418,206.19782 c 0.703261,-1.20331 1.715382,-2.03609 3.260046,-2.46865"
           id="path879"
           sodipodi:nodetypes="cc" />
        <path
           style="fill:none;stroke:#000000;stroke-width:0.264583px;stroke-linecap:butt;stroke-linejoin:miter;stroke-opacity:1"
           d="m 86.552226,208.84578 c 0.703261,-1.25056 1.691758,-1.98884 3.236422,-2.4214"
           id="path879-7"
           sodipodi:nodetypes="cc" />
        <path
           style="fill:none;stroke:#000000;stroke-width:0.264583px;stroke-linecap:butt;stroke-linejoin:miter;stroke-opacity:1"
           d="m 90.308305,216.35419 c -0.703261,1.25056 -2.37684,2.79204 -3.921504,3.2246"
           id="path879-7-6"
           sodipodi:nodetypes="cc" />
        <path
           style="fill:none;stroke:#000000;stroke-width:0.264583px;stroke-linecap:butt;stroke-linejoin:miter;stroke-opacity:1"
           d="m 90.201999,218.29133 c -0.96312,1.2978 -2.258723,2.31957 -3.685269,2.91749"
           id="path879-7-6-3"
           sodipodi:nodetypes="cc" />
        <path
           style="fill:none;stroke:#000000;stroke-width:0.264583px;stroke-linecap:butt;stroke-linejoin:miter;stroke-opacity:1"
           d="m 89.792969,220.93876 c -0.96312,1.2978 -1.384653,1.8471 -2.811199,2.44502"
           id="path879-7-6-3-3"
           sodipodi:nodetypes="cc" />
        <path
           style="fill:none;stroke:#000000;stroke-width:0.264583px;stroke-linecap:butt;stroke-linejoin:miter;stroke-opacity:1"
           d="m 89.423331,223.20003 c -0.570568,-0.11372 -0.932737,-0.27062 -1.164922,-0.54133"
           id="path879-7-6-3-3-1"
           sodipodi:nodetypes="cc" />
      </g>
      <path
         style="fill:#000000;stroke:#000000;stroke-width:0.262817px;stroke-linecap:butt;stroke-linejoin:miter;stroke-opacity:1"
         d="m 33.683354,16.51317 0.61631,0.95916 v -4.92778 l -0.581568,0.92127 z"
         id="path980" />
      <rect
         style="fill:#ffffff;fill-opacity:1;stroke:#000000;stroke-width:0.262817;stroke-linecap:round;stroke-linejoin:bevel;stroke-miterlimit:4;stroke-dasharray:none;stroke-opacity:1;paint-order:stroke fill markers"
         id="rect987"
         width="6.5802593"
         height="1.4669141"
         x="-18.323013"
         y="34.299652"
         ry="0.73345703"
         transform="rotate(-90)" />
      <ellipse
         style="fill:#000000;fill-opacity:1;stroke:none;stroke-width:17.355;stroke-linecap:round;stroke-linejoin:bevel;stroke-opacity:0.252033;paint-order:stroke fill markers"
         id="path974"
         cx="-15.047524"
         cy="35.04356"
         transform="rotate(-90)"
         rx="0.68389601"
         ry="0.67479748" />
      <ellipse
         style="fill:#000000;fill-opacity:1;stroke:none;stroke-width:17.355;stroke-linecap:round;stroke-linejoin:bevel;stroke-opacity:0.252033;paint-order:stroke fill markers"
         id="circle978"
         cx="-18.695787"
         cy="35.04356"
         transform="rotate(-90)"
         rx="0.68389601"
         ry="0.67479748" />
      <ellipse
         style="fill:#000000;fill-opacity:1;stroke:none;stroke-width:17.355;stroke-linecap:round;stroke-linejoin:bevel;stroke-opacity:0.252033;paint-order:stroke fill markers"
         id="circle976"
         cx="-11.444932"
         cy="35.04356"
         transform="rotate(-90)"
         rx="0.68389601"
         ry="0.67479748" />
      <rect
         style="fill:#ffffff;fill-opacity:1;stroke:#000000;stroke-width:0.226913;stroke-linecap:round;stroke-linejoin:bevel;stroke-miterlimit:4;stroke-dasharray:none;stroke-opacity:0.995935;paint-order:stroke fill markers"
         id="rect999"
         width="0.80436242"
         height="1.0452113"
         x="-15.434891"
         y="36.648369"
         ry="0"
         rx="0"
         transform="rotate(-90)" />
      <path
         style="fill:#000000;stroke:#000000;stroke-width:0.262817px;stroke-linecap:butt;stroke-linejoin:miter;stroke-opacity:1"
         d="m 35.890198,17.33035 -0.01648,-4.63546 c 0.444575,0.56699 0.847542,1.13386 0.832347,2.33861 -0.01519,1.20475 -0.310888,1.66417 -0.81586,2.29685 z"
         id="path997"
         sodipodi:nodetypes="cczc" />
      <ellipse
         style="fill:#000000;fill-opacity:1;stroke:none;stroke-width:1.49027;stroke-linecap:round;stroke-linejoin:bevel;stroke-opacity:0.252033;paint-order:stroke fill markers"
         id="path958"
         cx="-15.033461"
         cy="38.272018"
         transform="rotate(-90)"
         rx="0.88944906"
         ry="0.87761581" />
      <ellipse
         style="fill:#ffffff;fill-opacity:1;stroke:none;stroke-width:1.10737;stroke-linecap:round;stroke-linejoin:bevel;stroke-opacity:0.252033;paint-order:stroke fill markers"
         id="circle960"
         cx="-15.033461"
         cy="38.272018"
         transform="rotate(-90)"
         rx="0.66092378"
         ry="0.65213084" />
      <path
         style="fill:none;stroke:#000000;stroke-width:0.156326px;stroke-linecap:butt;stroke-linejoin:miter;stroke-opacity:1"
         d="m 37.693576,15.619675 1.156852,-1.172434"
         id="path964" />
      <path
         style="fill:none;stroke:#000000;stroke-width:0.156326px;stroke-linecap:butt;stroke-linejoin:miter;stroke-opacity:1"
         d="m 37.693576,14.447241 1.156852,1.172432"
         id="path966" />
      <ellipse
         style="fill:#000000;fill-opacity:1;stroke:none;stroke-width:0.558006;stroke-linecap:round;stroke-linejoin:bevel;stroke-opacity:0.252033;paint-order:stroke fill markers"
         id="circle962"
         cx="-15.033461"
         cy="38.272018"
         transform="rotate(-90)"
         rx="0.33303967"
         ry="0.3286089" />
      <rect
         style="fill:#000000;fill-opacity:1;stroke:none;stroke-width:31.6028;stroke-linecap:round;stroke-linejoin:bevel;stroke-opacity:0.252033;paint-order:stroke fill markers"
         id="rect1003"
         width="0.99761063"
         height="0.99761063"
         x="38.312801"
         y="-18.19084"
         transform="matrix(0.70235585,0.711826,-0.70235585,0.711826,0,0)"
         inkscape:transform-center-x="-1.4160167"
         inkscape:transform-center-y="-0.010566206" />
      <g
         id="g1795"
         style="stroke:#000000;stroke-opacity:1"
         transform="matrix(0,-1,0.98669597,0,-187.79291,103.28256)">
        <path
           style="fill:none;stroke:#000000;stroke-width:0.264583px;stroke-linecap:butt;stroke-linejoin:miter;stroke-opacity:1"
           d="m 86.627418,206.19782 c 0.703261,-1.20331 1.715382,-2.03609 3.260046,-2.46865"
           id="path1783"
           sodipodi:nodetypes="cc" />
        <path
           style="fill:none;stroke:#000000;stroke-width:0.264583px;stroke-linecap:butt;stroke-linejoin:miter;stroke-opacity:1"
           d="m 86.552226,208.84578 c 0.703261,-1.25056 1.691758,-1.98884 3.236422,-2.4214"
           id="path1785"
           sodipodi:nodetypes="cc" />
        <path
           style="fill:none;stroke:#000000;stroke-width:0.264583px;stroke-linecap:butt;stroke-linejoin:miter;stroke-opacity:1"
           d="m 90.308305,216.35419 c -0.703261,1.25056 -2.37684,2.79204 -3.921504,3.2246"
           id="path1787"
           sodipodi:nodetypes="cc" />
        <path
           style="fill:none;stroke:#000000;stroke-width:0.264583px;stroke-linecap:butt;stroke-linejoin:miter;stroke-opacity:1"
           d="m 90.201999,218.29133 c -0.96312,1.2978 -2.258723,2.31957 -3.685269,2.91749"
           id="path1789"
           sodipodi:nodetypes="cc" />
        <path
           style="fill:none;stroke:#000000;stroke-width:0.264583px;stroke-linecap:butt;stroke-linejoin:miter;stroke-opacity:1"
           d="m 89.792969,220.93876 c -0.96312,1.2978 -1.384653,1.8471 -2.811199,2.44502"
           id="path1791"
           sodipodi:nodetypes="cc" />
        <path
           style="fill:none;stroke:#000000;stroke-width:0.264583px;stroke-linecap:butt;stroke-linejoin:miter;stroke-opacity:1"
           d="m 89.423331,223.20003 c -0.570568,-0.11372 -0.932737,-0.27062 -1.164922,-0.54133"
           id="path1793"
           sodipodi:nodetypes="cc" />
      </g>
      <ellipse
         style="fill:#000000;fill-opacity:1;stroke-width:22.4667;stroke-linecap:round;stroke-linejoin:bevel;paint-order:stroke fill markers"
         id="ellipse1797"
         cx="-1.2967868"
         cy="11.504401"
         transform="rotate(-90)"
         rx="1.2520461"
         ry="1.2353889" />
      <rect
         style="fill:#000000;fill-opacity:1;stroke:none;stroke-width:31.6028;stroke-linecap:round;stroke-linejoin:bevel;stroke-opacity:0.252033;paint-order:stroke fill markers"
         id="rect1808"
         width="0.99761063"
         height="0.99761063"
         x="16.673452"
         y="36.076736"
         transform="matrix(0.711826,-0.70235585,0.711826,0.70235585,0,0)"
         inkscape:transform-center-x="0.010565129"
         inkscape:transform-center-y="-1.4160168" />
      <rect
         style="fill:#000000;fill-opacity:1;stroke:none;stroke-width:31.6028;stroke-linecap:round;stroke-linejoin:bevel;stroke-opacity:0.252033;paint-order:stroke fill markers"
         id="rect1810"
         width="0.99761063"
         height="0.99761063"
         x="-15.669809"
         y="-39.105286"
         transform="matrix(-0.711826,0.70235585,-0.711826,-0.70235585,0,0)"
         inkscape:transform-center-x="-0.010565356"
         inkscape:transform-center-y="1.4160171" />
    </g>
    <path
       id="path2109"
       style="fill:#ffffff;stroke-width:0.0389535"
       d="m 29.080395,26.248527 c -0.117049,0 -0.23369,0.0349 -0.320394,0.104903 l -3.815271,3.080431 c -0.0867,0.07 -0.121439,0.167619 -0.121439,0.265618 -0.01734,0.098 0.03474,0.196133 0.121439,0.266134 l 2.462382,1.987991 0.867131,0.700218 0.485758,0.392223 c 0.173407,0.140004 0.467898,0.140004 0.641305,0 l 0.329696,-0.266134 c 0.173405,-0.140007 0.173405,-0.363839 0,-0.503846 l -1.69292,-1.357021 -1.506885,-1.204579 2.617928,-2.107364 0.581877,-0.469739 c 0.173405,-0.154008 0.173405,-0.377793 0,-0.517797 L 29.401306,26.35343 c -0.0867,-0.07 -0.203862,-0.104903 -0.320911,-0.104903 z" />
    <g
       id="g2117"
       transform="matrix(0.04193557,0,0,0.04193557,19.194755,17.185626)" />
    <g
       id="g2119"
       transform="matrix(0.04193557,0,0,0.04193557,19.194755,17.185626)" />
    <g
       id="g2121"
       transform="matrix(0.04193557,0,0,0.04193557,19.194755,17.185626)" />
    <g
       id="g2123"
       transform="matrix(0.04193557,0,0,0.04193557,19.194755,17.185626)" />
    <g
       id="g2125"
       transform="matrix(0.04193557,0,0,0.04193557,19.194755,17.185626)" />
    <g
       id="g2127"
       transform="matrix(0.04193557,0,0,0.04193557,19.194755,17.185626)" />
    <g
       id="g2129"
       transform="matrix(0.04193557,0,0,0.04193557,19.194755,17.185626)" />
    <g
       id="g2131"
       transform="matrix(0.04193557,0,0,0.04193557,19.194755,17.185626)" />
    <g
       id="g2133"
       transform="matrix(0.04193557,0,0,0.04193557,19.194755,17.185626)" />
    <g
       id="g2135"
       transform="matrix(0.04193557,0,0,0.04193557,19.194755,17.185626)" />
    <g
       id="g2137"
       transform="matrix(0.04193557,0,0,0.04193557,19.194755,17.185626)" />
    <g
       id="g2139"
       transform="matrix(0.04193557,0,0,0.04193557,19.194755,17.185626)" />
    <g
       id="g2141"
       transform="matrix(0.04193557,0,0,0.04193557,19.194755,17.185626)" />
    <g
       id="g2143"
       transform="matrix(0.04193557,0,0,0.04193557,19.194755,17.185626)" />
    <g
       id="g2145"
       transform="matrix(0.04193557,0,0,0.04193557,19.194755,17.185626)" />
    <path
       id="path894"
       style="fill:#ffffff;stroke-width:0.0389535"
       d="m 36.183965,33.151048 c 0.117049,0 0.233691,-0.0349 0.320394,-0.104903 l 3.815271,-3.080431 c 0.0867,-0.07 0.12144,-0.167619 0.12144,-0.265618 0.01734,-0.098 -0.03474,-0.196133 -0.12144,-0.266134 l -2.462382,-1.987991 -0.86713,-0.700218 -0.485759,-0.392223 c -0.173407,-0.140004 -0.467897,-0.140004 -0.641304,0 l -0.329696,0.266134 c -0.173406,0.140007 -0.173406,0.363839 0,0.503846 l 1.69292,1.357021 1.506885,1.204579 -2.617928,2.107364 -0.581877,0.469739 c -0.173405,0.154008 -0.173405,0.377793 0,0.517797 l 0.329696,0.266135 c 0.0867,0.07 0.203861,0.104903 0.32091,0.104903 z" />
  </g>
</svg>
