<svg xmlns="http://www.w3.org/2000/svg" width="153" height="116" viewBox="0 0 40.481 30.692"><g transform="matrix(.99903 0 0 1.00295 .134 .048)"><path style="fill:#fff;stroke:#000;stroke-width:.529167;stroke-linecap:butt;stroke-linejoin:miter;stroke-miterlimit:4;stroke-dasharray:none;stroke-opacity:1" d="M10.615 25.502V4.655C4.714 4.94.042 10.241.132 15.08c.09 4.837 4.489 9.764 10.483 10.423z"/><rect style="fill:#000;fill-opacity:1;stroke-width:10.2175;stroke-linecap:round;stroke-linejoin:bevel;paint-order:stroke fill markers" width="24.322" height="1.592" x="-27.244" y="10.709" ry=".796" transform="rotate(-90)"/><ellipse style="fill:#000;fill-opacity:1;stroke-width:22.4667;stroke-linecap:round;stroke-linejoin:bevel;paint-order:stroke fill markers" cx="-29.13" cy="11.504" transform="rotate(-90)" rx="1.252" ry="1.235"/><rect style="fill:#000;fill-opacity:1;stroke-width:16.1427;stroke-linecap:round;stroke-linejoin:bevel;paint-order:stroke fill markers" width="30.338" height=".373" x="-30.382" y="11.318" ry="0" transform="rotate(-90)"/><path style="fill:#fff;stroke:#000;stroke-width:.262817px;stroke-linecap:butt;stroke-linejoin:miter;stroke-opacity:.995935" d="M12.227 16.962c4.127-.753 8.118.025 12.167.142 2.814-.165 5.59-.065 8.485-.803.32-.053.578.077.804.212-.069-.93-.051-1.99.035-3.047-.2.272-.445.503-.792.473-2.638-.58-5.365-1.031-8.438-.993-4.076.239-8.106.98-12.261.331z"/><g style="stroke:#000;stroke-opacity:1"><path style="fill:none;stroke:#000;stroke-width:.264583px;stroke-linecap:butt;stroke-linejoin:miter;stroke-opacity:1" d="M86.627 206.198c.704-1.203 1.716-2.036 3.26-2.469M86.552 208.846c.703-1.25 1.692-1.99 3.237-2.422M90.308 216.354c-.703 1.25-2.377 2.792-3.921 3.225M90.202 218.291c-.963 1.298-2.259 2.32-3.685 2.918M89.793 220.939c-.963 1.298-1.385 1.847-2.811 2.445" transform="matrix(0 -1 .9867 0 -187.533 103.283)"/><path style="fill:none;stroke:#000;stroke-width:.264583px;stroke-linecap:butt;stroke-linejoin:miter;stroke-opacity:1" d="M89.423 223.2c-.57-.114-.932-.27-1.165-.541" transform="matrix(0 -1 .9867 0 -187.533 103.283)"/></g><path style="fill:#000;stroke:#000;stroke-width:.262817px;stroke-linecap:butt;stroke-linejoin:miter;stroke-opacity:1" d="m33.683 16.513.617.96v-4.928l-.582.92z"/><rect style="fill:#fff;fill-opacity:1;stroke:#000;stroke-width:.262817;stroke-linecap:round;stroke-linejoin:bevel;stroke-miterlimit:4;stroke-dasharray:none;stroke-opacity:1;paint-order:stroke fill markers" width="6.58" height="1.467" x="-18.323" y="34.3" ry=".733" transform="rotate(-90)"/><ellipse style="fill:#000;fill-opacity:1;stroke:none;stroke-width:17.355;stroke-linecap:round;stroke-linejoin:bevel;stroke-opacity:.252033;paint-order:stroke fill markers" cx="-15.048" cy="35.044" transform="rotate(-90)" rx=".684" ry=".675"/><ellipse style="fill:#000;fill-opacity:1;stroke:none;stroke-width:17.355;stroke-linecap:round;stroke-linejoin:bevel;stroke-opacity:.252033;paint-order:stroke fill markers" cx="-18.696" cy="35.044" transform="rotate(-90)" rx=".684" ry=".675"/><ellipse style="fill:#000;fill-opacity:1;stroke:none;stroke-width:17.355;stroke-linecap:round;stroke-linejoin:bevel;stroke-opacity:.252033;paint-order:stroke fill markers" cx="-11.445" cy="35.044" transform="rotate(-90)" rx=".684" ry=".675"/><rect style="fill:#fff;fill-opacity:1;stroke:#000;stroke-width:.226913;stroke-linecap:round;stroke-linejoin:bevel;stroke-miterlimit:4;stroke-dasharray:none;stroke-opacity:.995935;paint-order:stroke fill markers" width=".804" height="1.045" x="-15.435" y="36.648" ry="0" rx="0" transform="rotate(-90)"/><path style="fill:#000;stroke:#000;stroke-width:.262817px;stroke-linecap:butt;stroke-linejoin:miter;stroke-opacity:1" d="m35.89 17.33-.016-4.635c.444.567.847 1.134.832 2.338-.015 1.205-.31 1.665-.816 2.297z"/><ellipse style="fill:#000;fill-opacity:1;stroke:none;stroke-width:1.49027;stroke-linecap:round;stroke-linejoin:bevel;stroke-opacity:.252033;paint-order:stroke fill markers" cx="-15.033" cy="38.272" transform="rotate(-90)" rx=".889" ry=".878"/><ellipse style="fill:#fff;fill-opacity:1;stroke:none;stroke-width:1.10737;stroke-linecap:round;stroke-linejoin:bevel;stroke-opacity:.252033;paint-order:stroke fill markers" cx="-15.033" cy="38.272" transform="rotate(-90)" rx=".661" ry=".652"/><path style="fill:none;stroke:#000;stroke-width:.156326px;stroke-linecap:butt;stroke-linejoin:miter;stroke-opacity:1" d="m37.694 15.62 1.156-1.173M37.694 14.447l1.156 1.173"/><ellipse style="fill:#000;fill-opacity:1;stroke:none;stroke-width:.558006;stroke-linecap:round;stroke-linejoin:bevel;stroke-opacity:.252033;paint-order:stroke fill markers" cx="-15.033" cy="38.272" transform="rotate(-90)" rx=".333" ry=".329"/><path style="fill:#000;fill-opacity:1;stroke:none;stroke-width:31.6028;stroke-linecap:round;stroke-linejoin:bevel;stroke-opacity:.252033;paint-order:stroke fill markers" transform="scale(.99328 1.00667) rotate(45)" d="M38.313-18.191h.998v.998h-.998z"/><g style="stroke:#000;stroke-opacity:1"><path style="fill:none;stroke:#000;stroke-width:.264583px;stroke-linecap:butt;stroke-linejoin:miter;stroke-opacity:1" d="M86.627 206.198c.704-1.203 1.716-2.036 3.26-2.469M86.552 208.846c.703-1.25 1.692-1.99 3.237-2.422M90.308 216.354c-.703 1.25-2.377 2.792-3.921 3.225M90.202 218.291c-.963 1.298-2.259 2.32-3.685 2.918M89.793 220.939c-.963 1.298-1.385 1.847-2.811 2.445" transform="matrix(0 -1 .9867 0 -187.793 103.283)"/><path style="fill:none;stroke:#000;stroke-width:.264583px;stroke-linecap:butt;stroke-linejoin:miter;stroke-opacity:1" d="M89.423 223.2c-.57-.114-.932-.27-1.165-.541" transform="matrix(0 -1 .9867 0 -187.793 103.283)"/></g><ellipse style="fill:#000;fill-opacity:1;stroke-width:22.4667;stroke-linecap:round;stroke-linejoin:bevel;paint-order:stroke fill markers" cx="-1.297" cy="11.504" transform="rotate(-90)" rx="1.252" ry="1.235"/><path style="fill:#000;fill-opacity:1;stroke:none;stroke-width:31.6028;stroke-linecap:round;stroke-linejoin:bevel;stroke-opacity:.252033;paint-order:stroke fill markers" transform="scale(1.00667 .99328) rotate(-45)" d="M16.673 36.077h.998v.998h-.998z"/><path style="fill:#000;fill-opacity:1;stroke:none;stroke-width:31.6028;stroke-linecap:round;stroke-linejoin:bevel;stroke-opacity:.252033;paint-order:stroke fill markers" transform="scale(-1.00667 -.99328) rotate(-45)" d="M-15.67-39.105h.998v.998h-.998z"/></g><path style="fill:#b3b3b3;stroke-width:.0389535" d="M29.08 26.249a.513.513 0 0 0-.32.104l-3.815 3.08a.331.331 0 0 0-.122.266c-.017.098.035.197.122.267l2.462 1.988.867.7.486.392c.173.14.468.14.641 0l.33-.266c.173-.14.173-.364 0-.504l-1.693-1.357-1.507-1.205 2.618-2.107.582-.47c.173-.154.173-.377 0-.517l-.33-.267a.514.514 0 0 0-.32-.104zM36.184 33.151a.513.513 0 0 0 .32-.105l3.816-3.08a.331.331 0 0 0 .121-.266c.017-.098-.035-.196-.121-.266l-2.463-1.988-.867-.7-.486-.392a.542.542 0 0 0-.64 0l-.33.266c-.174.14-.174.364 0 .504l1.692 1.357 1.507 1.204-2.618 2.107-.582.47c-.173.154-.173.378 0 .518l.33.266c.087.07.204.105.321.105z" transform="translate(0 -2.553)"/></svg>