<svg xmlns="http://www.w3.org/2000/svg" width="256" height="190" viewBox="0 0 67.733 50.271"><path style="fill:#fff;stroke:none;stroke-width:.264583px;stroke-linecap:butt;stroke-linejoin:miter;stroke-opacity:1" d="m38.16 35.2 8.123-19.42-15.97-6.33-15.78 6.992L28.33 42.995l9.922-3.685z"/><g style="fill:#00796b;fill-opacity:1"><path style="fill:#00796b;fill-opacity:1;stroke:none;stroke-width:.263522px;stroke-linecap:butt;stroke-linejoin:miter;stroke-opacity:1" d="M.08 12.496c1.54 1.654 3.31 2.358 5.2 2.576 5.414-.747 8.247-5.52 12.814-6.105C17.827 6.105 19.258.28 28.68 0c2.883.224 5.924-.068 7.8 3.434C53.906.43 54.318 5.025 54.215 7.917c9.024-1.326 13.62 4.19 7.936 8.776 10.096 5.661-.736 21.037-12.628 14.309-5.21 3.03-8.22 3.881-12.95 4.197l-.093-9.253c3.284-.379 3.728-6.108.742-4.77-.34-11.053-15.031-8.473-16.25-4.376 1.201-.48 2.394-.712 3.403-.752l-.71 2.458h-3.25c-.357 1.367-.783 2.541-.464 5.819 1.168.207 2.393.091 3.993-2.099l-.994-.23c1.448-1.349 2.462-3.59 3.594-5.589-.114 1.44-1.802 5.631.65 4.007l-.093 1.621c.551-.388 2.157.308 4.457 1.717 1.455.039 2.529-.967 3.747-1.576-2.742 1.361-1.438 6.28-9.952 2.272-1.594 1.226-3.382 1.884-5.216 1.594 1.111 7.347 6.173 5.115 9.193 4.388 1.484-.355 2.104.41 2.878 1.621l-5.107 1.431v6.01l3.714-3.816L42.237 41.4l-15.322 8.87-14.485-8.298 8.914-5.151C6.338 34.165-.848 26.124.08 12.496z" transform="translate(1.587)"/><path style="fill:#00796b;fill-opacity:1;stroke:none;stroke-width:.263522px;stroke-linecap:butt;stroke-linejoin:miter;stroke-opacity:1" d="m28.436 15.79-.033 2.497 5.089-.574c-1.36-1.374-2.998-1.895-5.056-1.922z" transform="translate(1.587)"/></g><path style="fill:#fff;stroke:none;stroke-width:.263522px;stroke-linecap:butt;stroke-linejoin:miter;stroke-opacity:1" d="M29.013 6.916c19.478-1.837 39.593 3.39 23.261 23.704 10.477 4.183 21.07-8.174 9.193-13.64 7.126-3.721 3.459-9.762-6.779-8.156C56.457-1.485 34.133 5.25 29.013 6.916z"/></svg>